PathFileType	4	(X/Y/Z)	Kaydara	
DataRate	CameraRate	NumFrames	NumMarkers	Units	OrigDataRate	OrigDataStartFrame	OrigNumFrames	
240.00	240.00	4	72	mm	240.00	45	359	
Frame#	Time	Hips			RightUpLeg			RightLeg			RightFoot			RightFoot_End			LeftUpLeg			LeftLeg			LeftFoot			LeftFoot_End			Spine			Spine1			Spine2			Spine3			Neck			Head			Head_End			RightShoulder			RightArm			RightForeArm			RightHand			RightHandThumb1			RightHandThumb2			RightHandThumb3			RightHandThumb3_End			RightInHandIndex			RightHandIndex1			RightHandIndex2			RightHandIndex3			RightHandIndex3_End			RightInHandMiddle			RightHandMiddle1			RightHandMiddle2			RightHandMiddle3			RightHandMiddle3_End			RightInHandRing			RightHandRing1			RightHandRing2			RightHandRing3			RightHandRing3_End			RightInHandPinky			RightHandPinky1			RightHandPinky2			RightHandPinky3			RightHandPinky3_End			LeftShoulder			LeftArm			LeftForeArm			LeftHand			LeftHandThumb1			LeftHandThumb2			LeftHandThumb3			LeftHandThumb3_End			LeftInHandIndex			LeftHandIndex1			LeftHandIndex2			LeftHandIndex3			LeftHandIndex3_End			LeftInHandMiddle			LeftHandMiddle1			LeftHandMiddle2			LeftHandMiddle3			LeftHandMiddle3_End			LeftInHandRing			LeftHandRing1			LeftHandRing2			LeftHandRing3			LeftHandRing3_End			LeftInHandPinky			LeftHandPinky1			LeftHandPinky2			LeftHandPinky3			LeftHandPinky3_End			
		X1	Y1	Z1	X2	Y2	Z2	X3	Y3	Z3	X4	Y4	Z4	X5	Y5	Z5	X6	Y6	Z6	X7	Y7	Z7	X8	Y8	Z8	X9	Y9	Z9	X10	Y10	Z10	X11	Y11	Z11	X12	Y12	Z12	X13	Y13	Z13	X14	Y14	Z14	X15	Y15	Z15	X16	Y16	Z16	X17	Y17	Z17	X18	Y18	Z18	X19	Y19	Z19	X20	Y20	Z20	X21	Y21	Z21	X22	Y22	Z22	X23	Y23	Z23	X24	Y24	Z24	X25	Y25	Z25	X26	Y26	Z26	X27	Y27	Z27	X28	Y28	Z28	X29	Y29	Z29	X30	Y30	Z30	X31	Y31	Z31	X32	Y32	Z32	X33	Y33	Z33	X34	Y34	Z34	X35	Y35	Z35	X36	Y36	Z36	X37	Y37	Z37	X38	Y38	Z38	X39	Y39	Z39	X40	Y40	Z40	X41	Y41	Z41	X42	Y42	Z42	X43	Y43	Z43	X44	Y44	Z44	X45	Y45	Z45	X46	Y46	Z46	X47	Y47	Z47	X48	Y48	Z48	X49	Y49	Z49	X50	Y50	Z50	X51	Y51	Z51	X52	Y52	Z52	X53	Y53	Z53	X54	Y54	Z54	X55	Y55	Z55	X56	Y56	Z56	X57	Y57	Z57	X58	Y58	Z58	X59	Y59	Z59	X60	Y60	Z60	X61	Y61	Z61	X62	Y62	Z62	X63	Y63	Z63	X64	Y64	Z64	X65	Y65	Z65	X66	Y66	Z66	X67	Y67	Z67	X68	Y68	Z68	X69	Y69	Z69	X70	Y70	Z70	X71	Y71	Z71	X72	Y72	Z72	

45	0.183	5198.941	914.58397	126.699	5254.432414781292	897.7852645118055	53.158313235279174	5159.983621965912	501.3669696655525	-43.89019799654223	5142.231545112754	110.04150178379878	-120.17527787732914	4990.434236914706	33.2383249102369	-33.01491162460576	5157.940325621119	905.2161204637296	211.40122203524487	5066.942443795979	503.1868124977357	285.5517765466632	4995.940008115594	78.50423682037933	376.20408594019904	4874.323347177347	-3.9468435909330126	253.9341399874491	5131.468067667403	1032.0137195946488	80.1915703235141	5069.391753294564	1089.426354542801	32.16154667440024	5001.572280148765	1141.9835027706251	-21.597828411791564	4932.403464289298	1180.0283296335301	-78.21975968746457	4857.429646181348	1221.1536474334048	-137.05897473830686	4787.527702124876	1258.9384599182536	-188.01438448021202	4647.6673838007755	1336.156151942643	-192.97131610089036	4903.2754983568875	1209.3437335954395	-142.5940872087706	4965.23380088634	1201.5513868591602	-266.2521202847096	5043.690455199761	928.8790102102371	-305.424289236666	5037.454061448257	778.3754278193294	-511.593540272897	5046.768961816527	783.9852451575869	-552.675696698958	5023.480090690803	781.347554754868	-587.5252531342447	5006.220846556562	776.6299612684594	-609.8398693854125	4990.9421255615825	770.2327377948221	-626.7704712222103	5047.030984755102	774.0866335858622	-550.1256024515125	5044.212151085225	757.2229486324711	-598.7867028237918	5025.485303039302	745.9508539914034	-628.9779118660514	5005.7069824758755	742.8524959225946	-643.5484228680114	4983.848593212982	742.9250640871161	-652.7758333915069	5043.501219995606	766.8605564973308	-542.9411205712958	5038.847344425826	746.5035052813323	-586.518652717656	5017.935088058043	733.3052192423418	-618.3528648315001	4993.844091829744	729.1361655393885	-635.3987857803396	4969.81563448494	729.0060470725058	-645.2361956141632	5041.242243140994	762.1587773204911	-536.6577222916798	5035.586995802455	739.7546263455338	-570.3574838498032	5016.8772305139155	727.3652948407831	-596.9003011796207	4993.383266688775	722.87358590714	-612.7030431540195	4970.66900187774	722.5283680228979	-621.6496834873873	5037.43729256832	757.440123671739	-527.7366472701584	5030.450192097514	733.8864565773708	-553.2765029469278	5014.738709719608	722.6817130062492	-572.505418831451	4997.249279666681	718.7844122325082	-583.0521554983773	4976.925074178257	718.1211962489415	-590.4135104324436	4861.280816317616	1205.7994907569273	-91.21501624301206	4809.949898004843	1134.031023208335	15.036078385652509	4956.543146258447	969.5534245636777	-171.42718981985718	5044.110246173418	841.9975964234635	-385.77961999447473	5079.461798118557	852.6585789055612	-413.60171000930245	5123.463718106082	845.5727366424452	-420.62485978613927	5152.217245937392	837.2676805751022	-424.8604371429831	5174.571471746517	827.4607681328326	-427.83082730279955	5075.012688045048	842.3579034156015	-416.2102308036571	5119.215694401538	826.9271823614658	-449.86925251685403	5154.888308519547	811.8973622150461	-460.4455548616015	5177.871088032641	804.140603787302	-457.89107400203017	5197.437008052045	798.7910014056179	-449.61842245153497	5068.568718738579	833.5238583361631	-412.64563508014953	5108.196059524084	813.6960830136476	-443.5512036871916	5146.134465728468	796.1746178885634	-454.4964861614265	5173.388463818573	786.2784757279837	-451.12877690734814	5194.566754300795	780.163548982443	-441.93804225976777	5062.834637384377	827.6948468894078	-409.4011837300159	5093.214729843374	804.9192450338941	-434.67104556732676	5125.2107875684615	788.5327990963557	-443.55209190150947	5150.9305660565915	778.3952318470688	-439.9537336713459	5170.573921915338	772.3651514564162	-431.146287530068	5055.366074423078	821.2781158361307	-403.63999643639335	5078.461171680522	796.4895802730032	-423.7223038657735	5102.279148883157	781.7280936743111	-429.6947684087544	5120.166955211231	773.5404706548164	-426.5190664127723	5137.065751399554	767.7422798683145	-418.3999675014434
46	0.188	5198.941	914.58397	126.699	5254.40615017239	897.7920430444171	53.13726323391981	5159.978968782345	501.3856344292436	-43.97847560691294	5142.2222230389725	110.06685084918269	-120.29502905286373	4990.427690764498	33.26721514295713	-33.12674503426086	5157.968827230988	905.207002694255	211.41417046676133	5066.973886260888	503.16880190359433	285.51867705126125	4995.972634498666	78.476495540115	376.1229486110362	4874.3602361955445	-3.978450033540142	253.85139553268849	5131.459263221155	1032.023869400529	80.22876600900749	5069.394872029754	1089.4663759264688	32.21685530879063	5001.588526470615	1142.0508029738876	-21.533815106777464	4932.4312821791855	1180.1034278675806	-78.16523369207208	4857.46935336698	1221.2362812937306	-137.01491419509296	4787.576457976709	1259.0253424653213	-187.97976990300432	4647.679019588644	1336.185241914289	-192.95148172662363	4903.345417858124	1209.4730960027448	-142.55546071151747	4965.51841434819	1201.9005903871184	-266.3599296681861	5044.437645703614	928.9808620724273	-305.947787133977	5038.146194273705	778.3953306135303	-514.3564650064911	5047.889283781757	784.2765542908307	-555.8701018408892	5024.710419957416	781.6912621725376	-591.3066810507913	5007.472519509398	776.9695235148	-614.027394198165	4992.164313728491	770.5340818275089	-631.2942265494731	5048.013071219186	774.2699910792801	-553.3408620355731	5045.343204141535	757.449890160021	-602.7223573655975	5026.610036858284	746.1396776861956	-633.4631426618802	5006.800875780594	743.0097697201115	-648.3481148611663	4984.898806940902	743.0509275527228	-657.8174508221053	5044.322580732993	766.9286218317071	-546.1262401621478	5039.727097485588	746.5517391541364	-590.3901073999999	5018.786117524437	733.2964195563933	-622.817763198409	4994.6474386860355	729.0818931008145	-640.2400690967127	4970.566095794781	728.9138042227199	-650.3407302777002	5041.947034923721	762.1447146482229	-539.8028003514008	5036.245225613518	739.6527792109871	-574.0818303961962	5017.488013651142	727.1979827993903	-601.1344262767635	4993.936154456069	722.6540454014417	-617.2962548141684	4971.1665239207505	722.2691611266933	-626.4885379858952	5037.997231349964	757.3266904077993	-530.8175744461956	5030.880805917707	733.6327303247523	-556.8481932179714	5015.096563343382	722.3513660952304	-576.4711446627946	4997.548086338443	718.4042638113064	-587.272943027961	4977.165157018363	717.6991731226753	-594.84795096249	4861.280980783593	1205.8292015825182	-91.15751043250984	4809.790708064699	1133.751127616986	15.062171051974277	4956.713739656809	969.6016594116024	-172.29325674565723	5043.850922465931	842.0964074936478	-387.660947654597	5079.651393587521	852.9664443003787	-415.5310976486925	5123.773626228865	845.8415105809186	-422.3411784951129	5152.546124639093	837.4797583657914	-426.4400968872803	5174.860717746519	827.600367639974	-429.3065884632486	5075.029733975043	842.5979688616326	-418.2179068886939	5119.334113368486	827.1929363653832	-451.9755188438537	5154.97787886831	812.0812578639001	-462.4502599007013	5177.933096898409	804.240878260155	-459.7220325942663	5197.469711174064	798.7999852805322	-451.2309639586097	5068.401225117845	833.6781278867248	-414.67367391344584	5108.027652963254	813.8290298959267	-445.68646717075217	5145.909776980672	796.2067126215588	-456.5230806194676	5173.118621173515	786.2041522887159	-452.9467861863672	5194.259059825147	779.9866476244217	-443.51756612778746	5062.534785430637	827.7886713149403	-411.4429171097144	5092.800935230016	804.9439035057484	-436.8260985102932	5124.722581183932	788.4577956075293	-445.614441506035	5150.385339705908	778.2113349521453	-441.81595492542607	5169.986724263628	772.0818462310812	-432.7847787417984	5054.905963731217	821.2950294275082	-405.68028731486197	5077.799819830132	796.3984171609297	-425.87179415379745	5101.519145034197	781.539075479957	-431.7726580169279	5119.346463261103	773.2632939632742	-428.4522551841201	5136.197204016593	767.3720187046963	-420.13570074917493
47	0.192	5198.941	914.58397	126.699	5254.379950115928	897.7984631093096	53.11630047328892	5159.975049946581	501.4036930792368	-44.0663353819951	5142.213177111789	110.09156342391766	-120.41421895211312	4990.421454100725	33.29542998483082	-33.237992885169305	5157.997313915507	905.1983456955713	211.4271969735544	5067.005707630018	503.15120607140227	285.4859072839639	4996.004748963089	78.44922416026016	376.0417286497943	4874.3966153405745	-4.009618768178443	253.7685869965333	5131.450234444889	1032.033578118943	80.26522058858372	5069.397149676554	1089.504426949039	32.27052878623206	5001.603475035098	1142.1146058084603	-21.472244065817435	4932.457754130767	1180.1740295740085	-78.1137366396736	4857.507640854312	1221.3133637843528	-136.9744964969864	4787.6237338827705	1259.1057790685716	-187.9493512538152	4647.689500018696	1336.2081549028508	-192.9365970343688	4903.41336527322	1209.5960334818496	-142.52014154870864	4965.797330454837	1202.2364559972912	-266.4666384370654	5045.166987955803	929.0768772865938	-306.45619466742664	5038.83082816299	778.4068267860104	-517.0807592457559	5048.999212597656	784.5586971250175	-559.019685760284	5025.932975183389	782.0270669286487	-595.0371224242065	5008.718914714867	777.3021580128024	-618.1601034792641	4993.383880376388	770.8293920591889	-635.7603716900451	5048.986532612479	774.4442656288749	-556.5124488173215	5046.468035907383	757.6678780202167	-606.6081344547741	5027.732233638309	746.3206376325376	-637.8939049928641	5007.894892423862	743.1603188989486	-653.0904372524813	4985.9515954965345	743.1713205712534	-662.7992657394879	5045.137157018254	766.9879054146501	-549.2691534079186	5040.603405685202	746.5914799978509	-594.2140971923214	5019.637959963829	733.2803567328003	-627.2304002490918	4995.454922172544	729.021751312349	-645.0256933282058	4971.323431531376	728.8170737776587	-655.3869935670996	5042.646265759474	762.1220702063086	-542.9068710276587	5036.901904012917	739.5427548507749	-577.7615110255433	5018.101194261078	727.0236066284643	-605.3199311030854	4994.494771879911	722.4288070199266	-621.8376889270057	4971.672409673301	722.0055659023923	-631.2732156603098	5038.553072206312	757.2049770214894	-533.8590198112685	5031.311849875912	733.3712490941426	-560.3779999561809	5015.45836275519	722.0142179876725	-580.3921893267528	4997.853440326111	718.0183409563261	-591.4469248963705	4977.414218936278	717.2725529969906	-599.2335631516484	4861.280351591629	1205.8549738537617	-91.10359414369208	4809.63370508452	1133.4742419538002	15.085240326640779	4956.879273791998	969.6499777994162	-173.14946378165982	5043.58557498924	842.1914640632759	-389.5207100493528	5079.8285120175315	853.266634045888	-417.43608945949063	5124.066481809518	846.0996220961224	-424.03573817807535	5152.855475829827	837.679443257355	-428.0000881817543	5175.128981559236	827.7264306202045	-430.76464154249385	5075.0362061415935	842.8312099147088	-420.2013182017025	5119.437881187516	827.4486520620336	-454.0565939701028	5155.050253708094	812.2531023893465	-464.43191119311854	5177.976226187015	804.3279377393828	-461.5326581598852	5197.48207185998	798.7948498462903	-452.8263632394644	5068.225248513731	833.8266461582821	-416.6783041224767	5107.84791727795	813.9536711291055	-447.79788071745895	5145.671272168704	796.228457618918	-458.5282769761721	5172.833069607708	786.1181480302179	-454.7467371351593	5193.9341233195855	779.7971114925269	-445.08255084602456	5062.228032539433	827.8775840027104	-413.4618436049605	5092.379064825411	804.9620879614182	-438.95839308948507	5124.224431721164	788.374696170837	-447.65629285210616	5149.828503962898	778.0181429822244	-443.6609647615844	5169.386551293367	771.7883891614879	-434.4093984286656	5054.440886826566	821.308096948483	-407.6987025844641	5077.133618523174	796.302628902896	-427.9999373308307	5100.753270154839	781.3443893201784	-433.8312023255124	5118.5191140001525	772.9796984757844	-430.3685889715705	5135.320721202116	766.9946510449804	-421.8575910669218
48	0.196	5198.941	914.58397	126.699	5254.353859379833	897.8045398691551	53.09545188553861	5159.971888278803	501.42114820018094	-44.15368021650046	5142.204403055056	110.1156360940078	-120.53271915516989	4990.415522245424	33.32296545552199	-33.348527930539774	5158.025738997522	905.1901356653842	211.44028014768864	5067.037857793586	503.1340207692886	285.45349457434475	4996.036297353123	78.42243203457116	375.9605202361161	4874.432426869528	-4.040336176429047	253.68580918860692	5131.440987854829	1032.0428389432054	80.30090801812435	5069.398602290171	1089.5404947711856	32.32252219818211	5001.617153465165	1142.1748953133385	-21.413177553990806	4932.482922807658	1180.2401274733427	-78.06534267689736	4857.544565493235	1221.38489642386	-136.93780706002264	4787.669598022487	1259.1797786355914	-187.92322345653812	4647.698885205942	1336.224882965367	-192.92672605626154	4903.479384046331	1209.7125417658333	-142.48819125338494	4966.070574147461	1202.5589923358755	-266.5721650054764	5045.878401572253	929.1672927904783	-306.94946822225427	5039.508120413529	778.4108488482287	-519.7652882377312	5050.098586307839	784.8325254613377	-562.1229340557674	5027.1475104844985	782.355925222245	-598.7146367201867	5009.959774923731	777.6289244745457	-622.2357778444649	4994.600599059212	771.1198408538222	-640.1664701154575	5049.951333419518	774.6104026939921	-559.6388820241801	5047.586547329597	757.8780323847676	-610.4420724651994	5028.851819793881	746.4950257091048	-642.2678798435074	5008.988979480644	743.3055309463749	-657.772859067006	4987.0069263115	743.2877022499289	-667.7185786299834	5045.945046915996	767.0394328063679	-552.368443900588	5041.476377350071	746.6239670940924	-597.9887714979031	5020.490769410795	733.2584674846566	-631.5885454279131	4996.266729848515	728.957297065229	-649.7531770082699	4972.087855708027	728.7174933417807	-660.3723219423833	5043.340129296108	762.0919214150268	-545.9685759091931	5037.557315610811	739.425866442408	-581.3948292910128	5018.717115097255	726.8436615411979	-609.4547989652217	4995.059503771147	722.1994871831396	-626.3250925785641	4972.187073425782	721.7392771661301	-636.0012951516424	5039.105124039881	757.076117791906	-536.8597037400561	5031.743785954337	733.1033975941998	-563.8643827552717	5015.824644657718	721.671813662413	-584.2667744952892	4998.16592263174	717.6282840710383	-595.5721594339047	4977.672874888087	716.843049758589	-603.5682612711875	4861.278989711098	1205.8768087725934	-91.05336979050331	4809.478976807406	1133.2004761990142	15.10510475946607	4957.039677867998	969.6985621617303	-173.99553368388922	5043.314832393775	842.2834506758869	-391.35809385198684	5079.993479782776	853.5597202885729	-419.31578409872765	5124.342597370517	846.347692417176	-425.7078301002984	5153.145657996681	837.8674199676602	-429.5398424612061	5175.376707564284	827.8397197912436	-432.2045399933771	5075.032587420717	843.0582853886166	-422.1595487588969	5119.527529684202	827.695092646646	-456.1115495894422	5155.10607966758	812.4137747876092	-466.3897225287376	5178.001189119698	804.4027249328291	-463.32233157181383	5197.474855224898	798.7765849586666	-454.40419257552696	5068.041425189161	833.9701500951655	-418.65863373417943	5107.657619419021	814.0708877164526	-449.8845532799208	5145.419863697633	796.2408702702945	-460.51134263551336	5172.532811551884	786.0215620183837	-456.52810036725236	5193.593008704073	779.5960935794707	-446.63267725606863	5061.915121645845	827.962374206691	-415.4570870278493	5091.950069979777	804.9747615080959	-441.0670632813972	5123.71743773504	788.284592789799	-449.67692150943685	5149.261255066757	777.8168320460046	-445.48823661305676	5168.774662199484	771.4860095830944	-436.01981856873283	5053.9717116893535	821.3181666982658	-409.6943963680152	5076.463702504242	796.2032589321328	-430.10591051554206	5099.9828078272	781.1451967218169	-435.8696972417803	5117.686277239036	772.6909142629681	-432.2675106198301	5134.437737154873	766.6114582520381	-423.56525868286366
